<svg id="_1" data-name=" 1" xmlns="http://www.w3.org/2000/svg" viewBox="0 0 200.48 177.87"><defs><style>.cls-1{fill:#fff;}.cls-2{fill:#b62626;}</style></defs><path class="cls-1" d="M161,85.43c-.7-2.87-1.39-5.68-2.05-8.46l17.15-5a60.94,60.94,0,0,1,24.39-2.07Z"/><path class="cls-1" d="M2,169.57a1.77,1.77,0,0,0,1.58-1.93C3.49,167,2.33,153.39,16,148.92a3.76,3.76,0,0,1,3.87,1,18,18,0,0,0,17.93,5A17.78,17.78,0,0,0,50.6,141.43a21.53,21.53,0,0,1,5.19-10.11,36.75,36.75,0,0,1,6.8-5.68c6.94-4.65,20.63-11.91,31.63-13.07l19-8.31,23.18-9.14c-.81-3.83-1.66-7.4-2.48-10.78L96.42,95.4,84.81,98.65l-3.49,5.64C73.24,111.36,63.25,117.1,59,118.91a36.7,36.7,0,0,1-9.24,2.69,21.62,21.62,0,0,1-10.92-1.21,15.24,15.24,0,0,0-1.48-.5,18.12,18.12,0,0,0-21.89,21.92,3.77,3.77,0,0,1-2.27,4.39C-1.4,152.11,0,167.82.05,168A1.75,1.75,0,0,0,2,169.57Zm90.48-62.4a2.7,2.7,0,1,1,2.7-2.7A2.69,2.69,0,0,1,92.46,107.17ZM19,137.46a14,14,0,1,1,7.07,12.15A14,14,0,0,1,19,137.46Z"/><path class="cls-1" d="M126.05,136.13c.62-5.18,1.68-5.74,2.11-5.74,3.59,0,3.59,8.44,3.39,12-.25,4.63-.27,15,4.35,15h17.17c.47,6.16,1.23,13,2.26,20.47H128.48C126.92,166.62,124.72,147.4,126.05,136.13Z"/><path class="cls-1" d="M166.4,38.59c.38-3.56.84-21-5-21h-18C144.65,7,148,1.12,148.69,0h26.72c-8.22,14.27-4.92,36.12-4.92,45.81,0,3.46-.32,5.58-2.52,5.66C165.43,51.08,166.12,41.27,166.4,38.59Z"/><path class="cls-2" d="M37.78,53.61A18.09,18.09,0,0,0,20.36,84a3.63,3.63,0,0,1,.56,4.44l-.52.86a1.76,1.76,0,0,0,.76,2.5,1.8,1.8,0,0,0,2.3-.75l.57-1a3.69,3.69,0,0,1,4.18-1.61A17.86,17.86,0,0,0,39.3,88,20.72,20.72,0,0,1,49.62,86.9,36.87,36.87,0,0,1,59,89.6c5.83,2.47,14.23,7.84,21.08,13.61l3.36-5.43a1.67,1.67,0,0,1,1-.73l8.1-2.26c-10.21-2-23.29-7.51-29.87-11.91A37.23,37.23,0,0,1,56,77.39,22.08,22.08,0,0,1,50.63,67,18,18,0,0,0,37.78,53.61ZM47,71A14,14,0,1,1,26.09,58.91,13.94,13.94,0,0,1,47,71Z"/><path class="cls-2" d="M138.2,155.69h25.42c4.36,0,4.51-10.28,4.51-15.5,0-2.05,0-4-.08-5.95l8,2.36a60.94,60.94,0,0,0,24.39,2.06l-32.8-12.94c-2.12-32.86-11-48.51-12.61-72.53H155a6,6,0,0,1,0-.85c-.42-7-1.16-28.53,4.15-33.07h-25.5c-7.16,0-6.38,30.22-4.5,43.62,1.8,12.71,7.73,28.63,10.57,51.81l-24.24-9.55-1.62.64L96.69,113.3l44.13,13c.28,4.4.45,9,.45,13.94C141.27,144.41,141.22,153.07,138.2,155.69Z"/></svg>